<svg width="17" height="16" viewBox="0 0 17 16" fill="none" xmlns="http://www.w3.org/2000/svg">
<path fill-rule="evenodd" clip-rule="evenodd" d="M0.0776928 10.6953C0.131104 10.7165 0.22818 10.6388 0.250542 10.557C0.272872 10.4753 0.228631 10.4597 0.124059 10.5124C0.0263545 10.5616 0.000251279 10.6645 0.0776928 10.6953ZM0.882729 10.2984C0.907221 10.2986 0.927406 10.2859 0.927585 10.2701C0.927764 10.2542 0.907785 10.2487 0.883187 10.2579C0.858589 10.267 0.838404 10.2798 0.838331 10.2862C0.838258 10.2926 0.858238 10.2981 0.882729 10.2984ZM1.07798 9.61521C1.11576 9.61638 1.17133 9.60449 1.20143 9.5888C1.24525 9.56592 1.26624 9.57609 1.30706 9.64002L1.35797 9.71982L1.41402 9.65202C1.46082 9.59548 1.47759 9.59062 1.5153 9.62269C1.54953 9.6518 1.56893 9.65285 1.59523 9.6271C1.61436 9.60837 1.65805 9.59337 1.69234 9.59376C1.77327 9.59467 1.82655 9.54085 1.82749 9.45726C1.82861 9.35803 1.88347 9.34322 1.96371 9.42047L2.03497 9.48905L2.10919 9.42077C2.19113 9.34539 2.55661 9.2625 2.97321 9.22483C3.13243 9.21042 3.29895 9.16906 3.47729 9.09967C3.6669 9.02589 3.75809 9.00402 3.79397 9.02378C3.85319 9.05639 4.09391 9.00246 4.35009 8.89918C4.4444 8.86114 4.70258 8.77544 4.92378 8.70873C5.14499 8.642 5.35286 8.57333 5.38572 8.55612C5.57424 8.45743 5.64769 8.43376 5.90565 8.38853C6.25286 8.32762 6.42388 8.32515 6.46856 8.38035C6.51837 8.44188 6.57835 8.85136 6.6093 9.34117C6.6288 9.64973 6.6642 9.88772 6.73281 10.1717C6.84147 10.6213 6.86574 10.6779 7.07708 10.975C7.30025 11.2887 7.3268 11.3386 7.30778 11.4082C7.29827 11.443 7.30853 11.4939 7.33055 11.5213C7.37356 11.5747 7.87983 11.991 8.11211 12.164C8.18984 12.2219 8.34081 12.3406 8.4476 12.4278C8.64971 12.5928 8.76971 12.6488 9.08697 12.7263C9.31129 12.7811 10.0002 12.7962 10.124 12.7491C10.1702 12.7315 10.2908 12.7003 10.392 12.6797C10.4932 12.6592 10.6072 12.6225 10.6453 12.5982C10.6834 12.574 10.8353 12.5094 10.9829 12.4548C11.1305 12.4002 11.493 12.244 11.7885 12.1078C12.5148 11.7729 12.5727 11.7442 12.595 11.709C12.6299 11.6538 13.0941 11.4422 13.1206 11.4694C13.1352 11.4844 13.1214 11.6098 13.0883 11.7612C12.9731 12.2892 12.9502 12.4152 12.9403 12.5759C12.9347 12.6658 12.9123 12.8216 12.8903 12.9221L12.8505 13.1049L12.9784 13.3066C13.0823 13.4702 13.1345 13.5218 13.2552 13.5797C13.344 13.6224 13.46 13.6519 13.543 13.6531C13.661 13.6547 13.6908 13.6427 13.7404 13.5738C13.8591 13.409 13.9447 13.2131 14.1442 12.649C14.5387 11.5337 14.9316 10.4101 15.0141 10.1607C15.06 10.0222 15.1444 9.83374 15.2016 9.74196C15.2589 9.65017 15.3059 9.5627 15.306 9.5476C15.3062 9.53246 15.3392 9.48992 15.3792 9.45302C15.4433 9.39414 15.639 9.35219 15.9096 9.3394C15.9219 9.33882 15.9589 9.31188 15.992 9.27954C16.0725 9.20072 16.0694 9.06578 15.9848 8.96205C15.9467 8.91537 15.8875 8.82022 15.8532 8.75057C15.8099 8.66267 15.766 8.61774 15.7098 8.60364C15.6652 8.59248 15.4947 8.51749 15.331 8.43698C15.0848 8.31589 15.0093 8.26174 14.8943 8.12378C14.8179 8.03207 14.7388 7.95682 14.7186 7.95659C14.6984 7.95637 14.6446 7.9162 14.5989 7.86736C14.5192 7.78221 14.305 7.68426 14.1956 7.68302C14.1362 7.68235 14.1184 7.7251 14.0765 7.96876C14.057 8.08214 14.0256 8.15917 13.986 8.19099C13.9033 8.25745 13.5222 8.28345 12.9156 8.26401C11.6007 8.2219 11.3222 8.22884 10.9555 8.31278C10.7672 8.35589 10.5396 8.39745 10.4497 8.40515C10.3217 8.4161 10.2677 8.43738 10.2006 8.50336C10.1535 8.5497 10.0365 8.61526 9.94064 8.64903C9.73278 8.72231 9.6462 8.80086 9.69106 8.87551C9.7276 8.93632 10.162 9.12458 10.4702 9.21318C10.7859 9.30391 11.3765 9.3706 12.2419 9.41328C12.654 9.43358 13.0044 9.45862 13.0207 9.46895C13.1125 9.52723 13.0027 9.65298 12.5996 9.95127C12.1448 10.2878 11.7882 10.4889 10.8964 10.9115C9.88692 11.3898 9.57348 11.5054 9.12164 11.5659C8.53338 11.6447 8.21581 11.5892 7.98057 11.3666C7.84244 11.2359 7.8247 11.2029 7.75994 10.956C7.70319 10.7396 7.68813 10.5981 7.68244 10.2265C7.67635 9.83034 7.66305 9.71721 7.58797 9.42247C7.53992 9.23383 7.4837 8.99899 7.46305 8.90061C7.37298 8.47143 7.20215 7.86926 7.11253 7.66492C7.05904 7.543 6.95939 7.38128 6.89103 7.30553C6.82268 7.22979 6.70901 7.07606 6.63846 6.96388C6.4986 6.74157 6.40903 6.67837 6.13515 6.60881C5.85718 6.53819 5.59024 6.55281 5.28297 6.6555C5.13321 6.70556 4.98887 6.74625 4.96224 6.74595C4.90509 6.7453 4.39948 6.91386 4.18593 7.00477C4.10389 7.03971 3.93078 7.10636 3.80128 7.1529C3.35875 7.31191 2.68055 7.63805 2.4078 7.82295C2.01531 8.08909 1.62851 8.32716 1.39146 8.44852C1.27806 8.50657 1.19213 8.56547 1.20052 8.57936C1.20888 8.59329 1.39244 8.54531 1.60843 8.47277C1.82442 8.40024 2.09454 8.3161 2.20872 8.2858C2.3229 8.25548 2.51554 8.18613 2.63679 8.13165C2.86553 8.02893 3.24198 7.9161 3.35185 7.91734C3.57904 7.91991 3.34283 8.20018 3.06722 8.25506C3.01478 8.2655 2.93815 8.30003 2.89688 8.33177C2.85563 8.36354 2.72435 8.42853 2.60517 8.47619C2.48598 8.52382 2.36112 8.58766 2.32768 8.61804C2.2687 8.67158 1.8307 8.86895 1.57334 8.95797C1.50365 8.98205 1.44651 9.01533 1.44632 9.0319C1.44613 9.04846 1.46277 9.0559 1.48325 9.04843C1.76552 8.94557 1.89787 8.90692 1.91343 8.92286C1.94073 8.95085 1.92583 8.96094 1.63526 9.11153C1.43516 9.21524 1.36737 9.26589 1.35373 9.32194C1.34386 9.36255 1.28924 9.42492 1.23239 9.46059C1.17552 9.49626 1.10205 9.54518 1.06911 9.56929C1.01013 9.61248 1.01025 9.61317 1.07798 9.61521ZM1.63465 9.44441C1.65938 9.44468 1.67888 9.47134 1.67851 9.50438C1.67784 9.56362 1.64599 9.58137 1.6088 9.54324C1.57305 9.50661 1.58947 9.44389 1.63465 9.44441ZM2.96137 9.45259C2.98083 9.44633 3.00221 9.42536 3.0089 9.40602C3.01639 9.38436 3.00287 9.37758 2.97386 9.38834C2.91965 9.40849 2.90774 9.46983 2.96137 9.45259Z" fill="black"/>
</svg>
