<svg width="17" height="16" viewBox="0 0 17 16" fill="none" xmlns="http://www.w3.org/2000/svg">
<path fill-rule="evenodd" clip-rule="evenodd" d="M14.7996 11.4337C14.8733 11.18 14.9434 10.8886 14.9554 10.786C14.9674 10.6834 15.0639 10.3159 15.1697 9.96921C15.2755 9.62254 15.3949 9.20683 15.4349 9.04541C15.4749 8.88397 15.6261 8.46799 15.7709 8.12101C16.0126 7.54168 16.053 7.47562 16.2656 7.31235C16.4275 7.18793 16.5331 7.05141 16.6174 6.85774C16.9886 6.00449 17.0033 5.95866 16.9567 5.80335C16.8771 5.53825 16.7612 5.54649 16.4152 5.84182C16.2108 6.01638 16.0134 6.12925 15.8744 6.15112C15.754 6.17011 15.5665 6.21289 15.4578 6.24623C15.349 6.27961 15.1565 6.31197 15.0298 6.3182C14.9031 6.32443 14.4625 6.35514 14.0506 6.3864C12.4703 6.50631 11.0135 6.45011 10.5997 6.25325C10.1568 6.04258 10.0443 6.16987 10.2163 6.68733C10.2937 6.92023 10.3882 7.07407 10.507 7.1604C10.7648 7.34783 11.7383 7.55922 12.2867 7.54686C12.5391 7.54118 12.763 7.54478 12.7842 7.55487C12.862 7.59185 11.3392 8.0985 9.80509 8.5461C9.51347 8.63122 8.8112 8.83756 8.24444 9.00475C7.67767 9.17193 7.12386 9.31187 7.01375 9.31574C6.75821 9.32471 6.23385 9.49697 6.24182 9.56933C6.2504 9.64717 6.81215 9.5173 7.81679 9.20517C8.29152 9.05766 8.68748 8.95819 8.69671 8.98417C8.70594 9.01015 8.6248 9.06762 8.51638 9.11192C8.36694 9.17294 8.34572 9.19506 8.42885 9.20337C8.48919 9.20937 8.52838 9.23555 8.51601 9.26156C8.49172 9.31261 7.55077 9.59336 7.4942 9.56646C7.47542 9.55752 7.47924 9.50769 7.50279 9.4557C7.53866 9.37643 7.51893 9.37348 7.38021 9.43749C7.28927 9.47941 7.1954 9.55465 7.17162 9.60463C7.14785 9.65461 7.07166 9.7258 7.00231 9.76289C6.9041 9.81539 6.86862 9.80928 6.84172 9.73519C6.81476 9.66108 6.73295 9.66449 6.47 9.75084C6.09239 9.87492 6.04219 9.94915 6.37576 9.89021C6.49623 9.86897 6.58295 9.87649 6.56842 9.90705C6.55391 9.93755 6.58476 9.96581 6.63695 9.9699C6.77872 9.9809 6.69826 10.091 6.54305 10.0983C6.46919 10.1019 6.39631 10.1309 6.38106 10.163C6.36584 10.195 6.74348 10.0994 7.22036 9.95054C8.29028 9.6165 8.9486 9.44266 8.9653 9.48978C8.97229 9.50944 8.63188 9.62484 8.20875 9.74623C7.02704 10.0853 5.97716 10.4561 6.21932 10.4489C6.33307 10.4455 6.73677 10.3418 7.11641 10.2184C8.35461 9.81607 8.8951 9.70621 8.8157 9.87312C8.80303 9.89977 8.77006 9.91086 8.74244 9.89772C8.71483 9.88459 8.67298 9.92374 8.64942 9.98472C8.62586 10.0457 8.609 10.0967 8.61194 10.0981C8.61488 10.0995 8.72418 10.0583 8.85477 10.0066C8.98536 9.95487 9.05393 9.91543 9.00718 9.91892C8.95647 9.92276 8.93653 9.89502 8.95778 9.85034C8.97784 9.80817 9.10646 9.79395 9.25211 9.81789C9.39441 9.84128 9.63459 9.8174 9.78594 9.76478C9.93727 9.71221 10.4786 9.56739 10.989 9.44299C12.1496 9.1601 12.7842 8.98209 13.6392 8.69982C14.0087 8.57787 14.3245 8.48443 14.341 8.49224C14.3575 8.50008 14.2538 8.78304 14.1107 9.12097C13.7773 9.90881 13.7159 10.4528 13.875 11.2105C13.9365 11.5033 14.0002 11.7635 14.0166 11.7888C14.0329 11.8141 14.1225 11.8077 14.2158 11.7746C14.3584 11.7239 14.4015 11.7336 14.4874 11.8358C14.5436 11.9026 14.6005 11.9624 14.6138 11.9687C14.6423 11.9823 14.6302 12.017 14.7996 11.4337ZM8.09528 10.1149C8.05435 10.0954 7.95664 10.0939 7.87815 10.1115C7.74209 10.1421 7.74307 10.1464 7.89889 10.2034C8.06097 10.2627 8.23822 10.1829 8.09528 10.1149ZM8.2318 9.19547C8.20307 9.1818 8.14681 9.20183 8.10672 9.23992C8.06199 9.28249 8.06226 9.31268 8.10759 9.31823C8.20027 9.32963 8.30217 9.22895 8.2318 9.19547ZM7.30376 9.80969C7.23039 9.81219 7.32488 9.76874 7.51378 9.71305C7.70269 9.65736 7.88136 9.62318 7.91082 9.63713C7.97428 9.66705 7.49607 9.80299 7.30376 9.80969ZM5.76609 10.3522C5.728 10.3564 5.6918 10.3704 5.68562 10.3834C5.67943 10.3964 5.69847 10.4184 5.72791 10.4324C5.75734 10.4464 5.79356 10.4324 5.80838 10.4012C5.82319 10.3701 5.80418 10.348 5.76609 10.3522ZM5.64286 10.626C5.58362 10.5342 5.49024 10.556 5.22515 10.7236C5.09773 10.8041 4.9784 10.8556 4.96011 10.8381C4.91566 10.7954 4.62042 10.9095 4.55398 10.9951C4.52498 11.0324 4.44235 11.0792 4.3704 11.0992C4.22329 11.1398 3.99702 11.2497 4.02902 11.2649C4.04052 11.2703 4.41774 11.1434 4.86731 10.9828C5.36148 10.8063 5.66817 10.6652 5.64286 10.626ZM5.11668 9.94483C5.05214 9.91413 4.50979 10.1748 4.52854 10.2276C4.53597 10.2484 4.68314 10.1989 4.85567 10.1176C5.02814 10.0363 5.14563 9.9586 5.11668 9.94483ZM2.35901 11.6517C2.07752 11.7503 1.83589 11.8547 1.82207 11.8838C1.80825 11.9128 1.66747 11.9843 1.50926 12.0427C1.17113 12.1674 1.13099 12.3116 1.44222 12.2837C1.70099 12.2604 2.39648 11.9178 2.46126 11.7816C2.48827 11.7249 2.57927 11.6577 2.66346 11.6325C2.74766 11.6072 2.82878 11.5608 2.8437 11.5295C2.85861 11.4981 2.64051 11.5531 2.35901 11.6517ZM2.83039 10.7932C2.29404 11.0081 1.59457 11.3568 1.61039 11.4012C1.62796 11.4506 2.38087 11.1088 2.8298 10.8477L3.12984 10.6731L2.83039 10.7932ZM2.4729 11.3449C2.165 11.4205 2.09478 11.4484 2.06726 11.5063C2.0527 11.5369 1.94037 11.5816 1.81763 11.6055C1.58202 11.6513 0.965692 11.9647 0.987889 12.0272C0.999699 12.0604 1.90218 11.675 2.44161 11.4064L2.65487 11.3003L2.4729 11.3449Z" fill="black"/>
</svg>
