<svg width="17" height="16" viewBox="0 0 17 16" fill="none" xmlns="http://www.w3.org/2000/svg">
<path fill-rule="evenodd" clip-rule="evenodd" d="M16.9765 8.82398C16.9394 8.65979 16.9068 8.62253 16.8196 8.64468C16.7591 8.66004 16.6876 8.71878 16.6607 8.77522C16.5835 8.93754 16.4613 8.91101 16.3848 8.71545C16.3071 8.51667 16.2323 8.51185 16.1429 8.6998C16.0793 8.83356 15.7443 9.02706 15.6522 8.98324C15.6212 8.9685 15.4554 8.97814 15.2837 9.00469C15.1119 9.03118 14.7692 9.0524 14.5221 9.05186C12.7177 9.04779 12.252 9.05789 11.8135 9.11054C11.2741 9.1754 11.2742 9.26193 11.814 9.37153C11.9678 9.40275 12.1929 9.4489 12.3141 9.47411C12.4353 9.49932 12.8202 9.63951 13.1695 9.78557C13.5187 9.93168 13.8698 10.0611 13.9497 10.0732C14.2026 10.1113 14.0611 10.2071 13.388 10.4538C12.7761 10.6781 12.6975 10.6889 12.0365 10.6398C11.6504 10.611 10.9366 10.5075 10.4502 10.4097C8.57748 10.0331 7.41721 9.76559 7.05101 9.62608C6.61882 9.46133 5.63795 9.25125 5.51214 9.29647C5.45621 9.31658 5.47067 9.33418 5.55596 9.34984C5.98036 9.42769 6.08554 9.47343 6.00853 9.5467C5.90691 9.64336 6.19343 9.78526 6.41489 9.74789C6.5014 9.73333 6.58008 9.74341 6.58966 9.7704C6.59922 9.7973 6.66136 9.82263 6.72773 9.82659C6.79409 9.83054 6.9543 9.87304 7.08373 9.92104C7.21316 9.96904 7.72934 10.0952 8.23078 10.2014C9.31519 10.4309 10.1142 10.6262 10.128 10.6648C10.1334 10.6801 9.79512 10.6462 9.37617 10.5894C8.95722 10.5325 8.4825 10.4688 8.3212 10.4478C8.15989 10.4268 7.97474 10.3842 7.90975 10.3531C7.84475 10.3219 7.68746 10.2985 7.56025 10.3008C7.43301 10.3032 7.23778 10.2714 7.12637 10.2302C7.01494 10.1889 6.88311 10.1654 6.83343 10.1779C6.78374 10.1904 6.63572 10.1722 6.50451 10.1374C6.34345 10.0946 6.28469 10.1006 6.32366 10.1556C6.35548 10.2004 6.63184 10.2991 6.93783 10.3747C7.24387 10.4504 7.49846 10.5242 7.50361 10.5387C7.50879 10.5533 7.35689 10.5454 7.16606 10.5213C6.77409 10.4717 6.28713 10.4806 6.40193 10.5352C6.44358 10.555 6.64829 10.6041 6.85691 10.6444C7.86253 10.8382 8.31434 10.9779 8.71822 11.2198C9.11803 11.4591 9.6337 11.6149 11.3482 12.0139C12.222 12.2172 12.7438 12.1069 14.1961 11.4117C14.4914 11.2703 14.8154 11.1166 14.9162 11.07L15.0994 10.9853L14.7081 11.9679C14.3251 12.9296 14.2305 13.2901 14.3467 13.3454C14.3785 13.3605 14.4355 13.3077 14.4734 13.2281C14.5113 13.1484 14.5952 13.0443 14.6598 12.9966C14.7244 12.949 15.0965 12.3261 15.4868 11.6124C15.9171 10.8254 16.2888 10.2091 16.4316 10.0461C16.7847 9.64278 17.0349 9.08185 16.9765 8.82398ZM7.6943 10.5743C7.65789 10.5349 7.67763 10.5279 7.74467 10.5565C7.80531 10.5824 7.83227 10.6115 7.80462 10.6214C7.77697 10.6312 7.72729 10.61 7.6943 10.5743ZM6.14848 10.4201C6.08144 10.3916 6.0617 10.3986 6.09812 10.438C6.13111 10.4737 6.18078 10.4948 6.20843 10.485C6.23609 10.4752 6.20912 10.446 6.14848 10.4201ZM6.15038 10.0003C6.10201 9.97729 6.05031 9.98385 6.03554 10.0149C6.02077 10.0459 6.03257 10.0827 6.0618 10.0966C6.09104 10.1105 6.14268 10.1039 6.17664 10.082C6.2106 10.0601 6.19875 10.0233 6.15038 10.0003ZM5.87022 10.3624C5.79261 10.3255 5.75474 10.3232 5.78613 10.3573C5.81745 10.3915 5.88094 10.4217 5.92723 10.4245C5.97345 10.4273 5.94782 10.3994 5.87022 10.3624ZM5.58683 10.2914C5.51978 10.2628 5.50004 10.2698 5.53646 10.3092C5.56945 10.3449 5.61913 10.3661 5.64678 10.3562C5.67443 10.3464 5.64747 10.3173 5.58683 10.2914ZM5.45224 9.85889C5.36758 9.83682 5.29366 9.82852 5.288 9.84043C5.28236 9.85228 5.34121 9.89225 5.41882 9.92916C5.49642 9.96607 5.57033 9.97438 5.58303 9.94768C5.59576 9.92093 5.53691 9.88096 5.45224 9.85889ZM5.35284 9.27488C5.25673 9.22916 5.09148 9.23507 5.06769 9.28507C5.02718 9.37024 5.25285 9.44145 5.33018 9.36792C5.37017 9.32984 5.38039 9.28798 5.35284 9.27488ZM5.05529 9.75624C5.02605 9.74233 4.97471 9.74871 4.94114 9.77039C4.90619 9.79294 4.92431 9.81319 4.9837 9.81783C5.09931 9.8268 5.13645 9.79484 5.05529 9.75624ZM5.13681 9.1034C4.95273 9.01708 2.9443 8.61886 2.96338 8.67244C2.97028 8.69185 3.15556 8.74552 3.37512 8.79175C3.59467 8.83798 4.09179 8.94496 4.47987 9.02947C5.12248 9.16946 5.32673 9.19242 5.13681 9.1034ZM4.48814 9.34804C4.4589 9.33413 4.40756 9.34051 4.37399 9.36219C4.33904 9.38474 4.35717 9.40499 4.41655 9.40964C4.53216 9.4186 4.5693 9.38665 4.48814 9.34804ZM4.28989 9.61073C4.21229 9.57381 4.17442 9.57151 4.20581 9.60561C4.23712 9.63975 4.30062 9.66995 4.34691 9.67273C4.39312 9.67554 4.3675 9.64764 4.28989 9.61073ZM3.82651 9.49364C3.66206 9.43922 3.4661 9.39287 3.39108 9.39054C3.30235 9.38778 3.35655 9.42035 3.54622 9.48372C3.70657 9.53729 3.9025 9.5837 3.98165 9.58682C4.07893 9.59066 4.02866 9.56045 3.82651 9.49364ZM3.93608 9.22691C3.91219 9.2172 3.74776 9.18633 3.57077 9.15827C3.26731 9.11019 3.26262 9.11177 3.48837 9.186C3.62003 9.22932 3.77232 9.28556 3.82684 9.31108C3.88135 9.33659 3.93798 9.33204 3.95275 9.301C3.96751 9.26996 3.95998 9.23661 3.93608 9.22691ZM3.51221 9.64513C3.48117 9.63037 3.44369 9.64368 3.42892 9.67473C3.41416 9.70577 3.42748 9.74325 3.45852 9.75801C3.48956 9.77278 3.52704 9.75946 3.5418 9.72842C3.55657 9.69738 3.54325 9.6599 3.51221 9.64513ZM3.63278 9.01584C3.56574 8.98728 3.546 8.99429 3.58241 9.03369C3.61541 9.06939 3.66508 9.09052 3.69273 9.0807C3.72038 9.07087 3.69342 9.04171 3.63278 9.01584ZM3.07178 9.47979C3.01671 9.47553 2.96691 9.48202 2.96111 9.49421C2.95531 9.5064 2.98865 9.53451 3.03522 9.55666C3.08178 9.57881 3.13158 9.57232 3.14589 9.54224C3.16017 9.51221 3.12683 9.4841 3.07178 9.47979ZM3.07498 9.29977C3.00719 9.26697 2.92395 9.25804 2.89 9.27995C2.8114 9.33067 2.94217 9.39287 3.08754 9.37392C3.17749 9.36217 3.17515 9.34832 3.07498 9.29977ZM2.48524 9.25394C2.27647 9.16612 2.06339 9.10934 2.01175 9.12768C1.94187 9.15251 1.96922 9.16967 2.11795 9.1944C2.22815 9.2127 2.41169 9.28851 2.52593 9.36292C2.64598 9.44113 2.76131 9.48035 2.79916 9.45593C2.84352 9.42727 2.74216 9.36203 2.48524 9.25394ZM2.81742 8.63229C2.77085 8.61014 2.6716 8.58964 2.59681 8.58681C2.51109 8.58354 2.4922 8.59649 2.54553 8.62186C2.59209 8.64401 2.69135 8.66451 2.76613 8.66735C2.85186 8.67061 2.87075 8.65766 2.81742 8.63229ZM1.05301 8.61924C0.985966 8.59067 0.966228 8.59769 1.00265 8.63709C1.03564 8.67278 1.08531 8.69392 1.11296 8.6841C1.14061 8.67427 1.11365 8.64511 1.05301 8.61924Z" fill="black"/>
</svg>
