<svg xmlns="http://www.w3.org/2000/svg" width="65" height="74" fill="none"><path fill="#000" fill-rule="evenodd" d="M63.59.29c-.178.167-.523.74-.768 1.275-.478 1.046-2.62 7.124-2.62 7.437 0 .104-.632 2.038-1.404 4.298-1.533 4.484-4.297 12.769-5.236 15.69-.325 1.013-.72 1.985-.876 2.162-.323.364-1.848 1.094-2.285 1.094-.159 0-.343.065-.41.144-.159.19-2.719.398-2.716.22 0-.074.118-.58.26-1.125.143-.544.293-1.547.334-2.229.069-1.16.049-1.304-.317-2.24-.515-1.322-.936-1.654-2.007-1.582-1.476.1-2.506 1.426-2.528 3.256-.01.816-.062 1.007-.417 1.522a8.918 8.918 0 0 0-.737 1.395c-.217.53-.465.887-.724 1.043-.217.13-.68.47-1.03.755-.49.4-.9.574-1.788.766-1.337.288-1.914.204-2.34-.341-.248-.317-.301-.532-.28-1.135.033-.912.434-2.075.896-2.599.718-.812 1.55-1.096 1.55-.529 0 .309.608.853.953.853.66 0 .952-1.696.43-2.493-.464-.707-.898-.882-1.77-.713-1.313.254-2.263 1.237-2.932 3.035-.207.555-.418 1.11-.469 1.236-.226.554-1.948 1.232-3.708 1.46-.564.072-1.124-.39-1.124-.929 0-.198-.05-.397-.11-.442-.061-.045-.146-.292-.189-.549-.058-.35-.19-.522-.528-.692-.411-.206-.497-.201-.984.06-.294.157-.773.518-1.065.803-.904.88-1.976 1.756-2.638 2.156-.768.463-1.607.755-1.733.603-.149-.18.373-1.417.946-2.241.29-.419.566-.781.61-.806.046-.024.378-.309.74-.633.88-.789 2.296-1.612 3.301-1.92.785-.242 1.918-.239 2.426.005.269.13.618-.296.618-.754 0-.46-.519-1.2-1.012-1.446-.249-.123-.753-.166-1.429-.121-.872.058-1.212.163-2.058.642a16.92 16.92 0 0 0-1.838 1.23c-.756.603-2.358 2.442-2.796 3.21-.1.177-.525.58-.944.898-.418.318-1.026.872-1.35 1.232-1.148 1.273-5.538 4.55-5.75 4.293-.022-.026.107-.458.286-.96.31-.87.966-3.011 1.634-5.327.17-.586.292-1.305.272-1.598-.03-.46-.084-.539-.395-.582-.48-.066-.781.287-1.28 1.495a31.651 31.651 0 0 1-.56 1.294c-.083.167-.708 1.897-1.388 3.843-1.364 3.907-1.35 3.884-2.813 4.597-.384.187-.983.495-1.331.684-.349.189-1.194.576-1.878.86-.684.284-1.426.697-1.648.92-.395.394-.403.427-.38 1.587.013.652.106 1.463.208 1.803.516 1.733.68 7.099.296 9.75-.28 1.934-.866 4.337-2.34 9.587C1.155 70.028.5 72.724.5 73.432c0 .423.424.688.82.514.27-.12.39-.441 1.276-3.427a810.46 810.46 0 0 1 3.55-11.438c.317-.985.75-2.201.963-2.703.212-.502.613-1.6.89-2.44a95.735 95.735 0 0 1 1.57-4.42c.23-.594 1.914-5.464 3.162-9.139.108-.317.435-.67 1.03-1.108.48-.354 1.272-.953 1.76-1.331s1.081-.792 1.318-.92c.512-.275 2.52-1.873 3.258-2.593.555-.54.684-.605.684-.34 0 .475.458 1.257.85 1.454.385.193.52.182 1.341-.111a8.923 8.923 0 0 0 3.82-2.621c.618-.724 1.205-1.066 1.436-.835.087.086.158.221.158.3 0 .262.694 1.202 1.13 1.53.842.632 2.215.623 3.366-.023.28-.158.723-.33.983-.384.452-.094.48-.074.671.477.253.727.631 1.215 1.227 1.582.794.489 3.042.345 3.651-.233.105-.1.447-.303.76-.454.539-.258 1.107-.55 1.285-.66.044-.028.116.123.16.334.133.635.812 1.436 1.37 1.616 1.064.344 2.128-.15 3.114-1.445l.644-.845 1.245.17c1.162.16 1.296.15 2.006-.159 1.291-.561 2.492-.904 2.424-.692-.033.103-.179.651-.325 1.218-.237.924-.245 1.066-.077 1.374.132.242.165.563.113 1.09-.241 2.45 1.733 2.682 4.5.527.917-.714 2.104-2.25 2.53-3.273.272-.654.329-.703 1.012-.867 1.894-.453 2.836-.958 2.61-1.398-.035-.067-.715-.121-1.513-.121h-1.45v-.617c0-1.385-.707-2.123-2.029-2.119-1.064.004-1.698.351-2.667 1.46-.415.476-.755.817-.755.757 0-.271 3.351-10.147 3.685-10.858.206-.44.54-1.298.74-1.906.202-.608.624-1.755.938-2.548 1.133-2.856 3.777-10.679 4.384-12.968.42-1.582.472-2.09.262-2.56-.167-.375-.385-.372-.79.01ZM17.318 19.657c-.175.359-.358.906-.406 1.218-.049.311-.144.566-.212.566s-.1.084-.072.186c.029.102-.022.357-.112.567-.186.43-.12.514.526.678.363.092.396.055.76-.847.27-.67.481-.988.729-1.101.192-.087.349-.272.349-.41 0-.212-1.023-1.508-1.19-1.508-.03 0-.197.293-.372.651Zm29.025 7.832c.248.712.18 2.328-.152 3.577-.27 1.021-.438 1.084-1.035.389-.472-.55-.525-.822-.185-.952.302-.115.729-.677.835-1.099.06-.235 0-.423-.203-.651-.236-.264-.383-.304-.83-.223-.606.11-.657.01-.353-.696.265-.614.672-.915 1.24-.915.44 0 .503.052.683.57ZM58.6 30.418c.06.07.068.48.019.912-.07.607-.152.813-.362.909-1.77.806-2.517 1.14-2.998 1.339-.313.13-.67.34-.792.465-.732.755.62-1.553 1.51-2.58.832-.959 1.506-1.368 2.071-1.258.244.048.493.144.552.213Zm-14.378 2.044c.159.203.454.45.656.551.202.101.368.236.368.301 0 .174-1.223.91-1.513.91-.491 0-.547-.889-.117-1.863.157-.355.263-.337.606.102Zm13.32 1.877c-1.25 1.922-2.801 3.233-3.828 3.233-1.01 0-.706-.648.937-2.003 1.187-.979 1.925-1.434 2.51-1.546.643-.124.658-.112.38.316Zm-47.202 7.38c-.144.656-4.254 12.82-4.255 12.593 0-.125.057-.525.126-.889.264-1.372-.202-6.337-.8-8.521-.187-.688-.228-1.041-.139-1.211.07-.132.807-.522 1.639-.867s1.655-.72 1.83-.835c.352-.232 1.236-.586 1.502-.602.118-.007.148.099.097.332Z" clip-rule="evenodd"/></svg>