<svg width="268" height="130" fill="none" xmlns="http://www.w3.org/2000/svg">
  <path fill-rule="evenodd" clip-rule="evenodd" d="M126.9.82C108.06 3.76 94.1 12.2 85.27 26.06c-.98 1.45-1.87 3.01-2.68 4.66-4.13 8.04-6.8 17.63-7.94 28.75 0 31.83 21.4 64.46 52.77 69.2 21.04 3.17 41.93-3.6 56.3-17.86 11 .29 26.07.24 35.74-.14 11.01-.43 2-.79-20.01-.79-5.96 0-10.96.03-14.88.08a61.73 61.73 0 0011.14-15.84c9.08-18.52 10.84-40.27 1.76-58.78C185.01 9.92 155.15-3.58 126.9.82zm-44.3 29.9a58.17 58.17 0 012.67-4.66C95.69 10.6 111.73 4.77 131.25 4.77l.62-.05c4.33-.39 6.34-.57 13.09.05 12.35 1.15 29.89 9 39.15 18.72 14.97 15.69 18.77 36.08 13.36 56.65-3.1 11.83-10.12 22.17-19.38 29.94-4.12.13-4.58.3-.6.5a63.99 63.99 0 01-34.85 14.33c-29.54 2.5-56.4-16.33-63.87-44.77-3.88-14.73-3.03-35.39 3.82-49.42zm43.24-20.57c-10.81 2.28-17.14 7.89-24.8 15.91l-.27.3c-7.17 7.5-11.93 12.5-14.86 23.04-.15.56-.34 1.09-.55 1.65-.83 2.31-1.9 5.27-1.9 14.22 0 7.3 1.3 12 2.1 14.87C88.53 90.81 90 95.71 97.32 103.4c21.68 22.72 56.44 22.72 78.11 0 7.33-7.68 13.11-14.92 16.07-25.6.8-2.87 1.03-5.76 1.03-13.06 0-10.14-.42-12.53-3.74-21.15-4.88-12.7-17.18-25.02-30.33-30.39-10.04-4.1-22.25-5.24-32.62-3.04zm9.13 7.65c0 3.6.22 5.02.9 5.69.35.36.6.33 1.06.3.16-.02.36-.03.6-.03.06 0 .12 0 .18.02.24.04.53.09.9-.3.68-.67.9-2.08.9-5.72v-4.84l1.56.3c.86.17 2.96.48 4.68.69 1.72.2 4.98 1 7.26 1.73 19.34 6.32 33.16 23.35 35.56 43.83v2.76l-4.32-.56h-1.32c-2.76-.02-4.27-.03-4.85.56l-.02.01c-.2.11-.4.31-.45.39-.06.08.04.02.45-.39.14-.07.27-.1.36-.01.67.67 2.08.9 5.7.9h4.8l-.35 6.85c-2.4 20.48-16.22 37.52-35.56 43.83a47.88 47.88 0 01-7.26 1.74c-1.72.2-3.82.52-4.68.68l-2.45.3-.21-1.97c0-1.46.14-3.03.27-4.42.19-2.08.34-3.77-.06-4.17-1.12-1.12-1.64-1.12-2.76 0-.67.67-.89 2.09-.89 5.73v4.83l-1.56-.3c-.86-.16-2.97-.47-4.68-.68-1.72-.22-4.98-1-7.26-1.74-19.34-6.31-33.16-23.35-35.56-43.83l-.35-5.6 4.08.35h5.28c1.77 0 2.26-.26 1.14-1.38-.67-.67-2.09-.9-5.7-.9h-4.8l.35-2.98c2.74-23.36 20.34-42 43.1-45.62 2.5-.4 4.86-.75 5.25-.78.52-.04.71 1.25.71 4.73zm-81.3 36.84c5.68.5 14.46.49 19.53-.01s.42-.9-10.32-.9-14.88.42-9.2.91zm208.87 65.78c-13.1.41-35.07.42-48.82 0s-3.04-.77 23.8-.77c26.85 0 38.1.34 25.02.77zm-260-39.33c5.68.5 49.73.49 54.8-.01 5.06-.5-34.85-.9-45.59-.9-10.74 0-14.88.41-9.2.9zM76.73 98.7c-5.06.5-26.33.84-31.75-.02h10.56c4 0 8.67-.07 12.68-.13 6.76-.1 11.69-.17 8.5.15zm-31.77-.02h.02-.02zm75.35 30.25c.63.25 1.4.22 1.69-.07.29-.3-.23-.5-1.16-.47-1.03.05-1.24.26-.53.54zm6.57.85c-.6.25-1.79.26-2.64.04-.86-.23-.37-.42 1.08-.44 1.46-.02 2.16.16 1.56.4zm46.7-88.4c6.35 1.39 7.7 8.23 1.54 9.6a5.62 5.62 0 01-3.94-.43l-1.76-.9 2.34.01c1.37-.19 2.66-.6 2.86-.93.2-.34-.49-.31-1.64.07-1.1.36-2.58.48-3.3.27-2.78-.83-1.54 1.48 1.38 2.55 1.16.43 2.88.53 4.2.23 1.83-.4 3.41-.96 4.54-2.82 1.55-2.55 1.26-4.5-.67-7.07-1.18-1.56-5.06-2.58-6.62-2.14-.39.11-.27 1.28 1.07 1.57zM43.11 101.62c-.84-.22-.15-.4 1.55-.4s2.39.18 1.54.4c-.85.23-2.24.23-3.09 0zm-2.22.81c-.3.3-1.05.33-1.69.07-.7-.28-.5-.49.53-.53.93-.04 1.45.17 1.16.46zm164.66-53.71c-.55-.97-1.01-1.44-1.03-1.05-.03.96.8 2.48 1.66 3.38.43.45.87.74 1.22.74.73-.01.77-.22.1-.66a8.7 8.7 0 01-1.95-2.41zm-3.7-4.85l.07.1.08.1c.4.56.7.67.7.24a5.3 5.3 0 00-.85-2.2c-.47-.73-.85-.93-.85-.45 0 .19.06.45.15.74.16.47.41 1.02.7 1.47z"/>
  <path class="wayfinder" fill-rule="evenodd" clip-rule="evenodd" d="M170.14 36.1l-.88-1.76-2.7 1.35c0-.06.05-.12.1-.2.1-.15.23-.33-.02-.47-.9-.51-1.53.34-1.97.94-.18.25-.33.46-.45.5l-.38.11.12.3.03.1-3.62 1.81h-.1c-1.06.03-1.97.06-1.85.14.14.1.13.1-.05.05-.33-.09-.47.2-.27.53.08.13.12.24.12.36l-4.83 2.41-16.75 7.18 20.57-7.64c-.05.21-.03.47.05.72.17.5.14.68-.13.85-.24.14-.27.23-.16.5.12.26.42.37.5.17.06-.2.3-.13.4.13.06.12.01.41-.14.86-.3.94-.36 1-.84.83-.22-.07-.41-.08-.43-.03-.02.06-.14.07-.26.03-.29-.1-.33.04-.1.31.12.15.14.31.07.6-.06.26-.05.4.05.46.12.07.17.01.29-.33.13-.4.16-.42.41-.34l.27.1-.24.73c-.27.82-.47 1.02-.84.84-.16-.08-.29-.05-.4.06-.1.1-.23.2-.3.23-.07.04-.08.09-.02.15.12.1 0 .5-.13.46-.16-.06-.19.26-.05.6.1.23.23.35.5.44.23.07.4.2.44.32.03.1.27.3.52.42.26.13.56.34.67.47.11.13.3.27.44.31l-.24.57a.39.39 0 01-.18-.02c-.1-.03-.24.03-.3.13-.17.25-.42.17-.33-.1.06-.16.01-.23-.2-.3-.15-.05-.25-.14-.24-.2.02-.05-.02-.12-.09-.14a.21.21 0 01-.13-.19c0-.08-.14.26-.31.76-.17.5-.28.92-.25.93.87.34 1.11.47 1.17.6.02.06.08.13.14.17l-.4.9c-.32-.1-.65-.23-.63-.29.02-.07-.4-.5-.56-.55-.03-.01-.13.21-.23.5-.1.28-.21.5-.26.49-.05-.02-.14.1-.2.27-.05.17-.15.3-.22.3-.1.01-.13.1-.14.35 0 .22-.07.43-.2.64-.17.25-.25.3-.46.22-.2-.06-.24-.13-.19-.3.04-.1.02-.21-.04-.23-.15-.05-.51.1-.56.24-.06.2.2.55.47.65.26.08.28.12.19.4-.12.35-.33.36-.47.03-.1-.22-.42-.26-.57-.07-.2.26-.1.46.32.64l.41.17-.17.61c-.14.49-.15.69-.04.94.24.58.38.51.66-.34.24-.72.27-.77.54-.83.27-.06.3-.05.35.2.02.1.06.2.12.26l-.43.98c-.17-.03-.24.02-.33.22-.07.16-.16.27-.21.25-.05-.01-.1.02-.12.08-.02.05.12.15.32.22l-.3.69c-.14.05-.36.22-.53.4-.44.5-.57.54-.97.32-.2-.11-.33-.13-.35-.06-.02.06.01.13.07.16.53.24.91.43 1.16.57l-.25.57a.35.35 0 01-.21 0c-.12-.04-.2.02-.25.15-.04.12-.01.23.06.25.21.07.14.37-.16.59-.24.18-.32.19-.58.03-.32-.19-.74-.64-.55-.58.07.02.16-.1.22-.27s.16-.3.23-.3c.16-.01 0-.44-.19-.5-.18-.06-.68.23-.68.4 0 .07-.1.33-.22.57-.34.65-.37 1.02-.1 1.12.22.07.55-.06.61-.24.03-.09.38-.18.38-.1 0 .27.1.55.27.76.1.14.18.3.15.37l-.16.43c-.11.28-.15.3-.44.2-.17-.06-.33-.06-.35 0-.02.05 0 .11.06.13.05.02.06.13.02.24-.04.12-.03.38.02.59.04.14.06.23.05.32l-.14.31c0 .02-.02.03-.03.05a5.21 5.21 0 00-.55 1.28l-.21.48a.48.48 0 01-.2.18.9.9 0 00-.35.36c-.1.2-.18.23-.43.18a.83.83 0 00-.5.03c-.16.1-.15.18.07.67.15.34.2.57.12.57-.15 0-.4.7-.27.75.12.03-.12.73-.26.77-.16.05-.48 1.08-.41 1.32l.05.14-.45 1.01-22.04 7.93-14.98 7.94 14.1-35.26 6.88-4.59-8.64 3.7-14.99 38.8 1.77 2.64 41.43-18.51 7.08-15.46c.31.01.39-.03.44-.2.04-.11 0-.36-.09-.56l.32-.7c.19-.07.25-.17.36-.51.09-.26.26-.56.4-.68.17-.15.25-.33.34-.74.07-.35.14-.53.2-.5.1.03.19-.43.14-.7l9.3-20.3c.82-.44 1.31-.9.66-1.2a.61.61 0 00-.1-.04l.34-.73zm-14.66 20.86l-.24.54c-.27-.15-.5-.42-.45-.59.05-.15.13-.16.42-.07l.27.12zm.65-1.47l-.15.33h-.02c-.05-.01-.13.08-.18.22-.1.29-.38.36-.5.12-.12-.23-.03-.43.3-.63.27-.18.5-.18.55-.04zm12.14-11.6c.06.02.24-.4.45-1.05.2-.6.35-1.1.34-1.1-.07-.03-.42.74-.64 1.42-.14.4-.2.72-.15.74zm-9.9-2.14c-.07-.02-.12-.09-.1-.14.02-.06.12-.08.22-.05.1.04.15.1.1.15a.24.24 0 01-.22.04zm.2 3.34a.26.26 0 01-.06-.25c.03-.1.2-.1.68.07.57.19.62.23.56.42-.04.11-.1.19-.16.17-.16-.05-.19.27-.03.4.09.07.14.18.12.26-.03.09-.25.08-.68-.02-.65-.15-1.02-.39-.66-.42.22-.03.4-.48.23-.63zm8.07 3.9c-.09.58.1.43.33-.28.13-.37.2-.69.15-.7-.12-.04-.42.57-.48.97zM157 46.36c-.05-.02-.07-.08-.06-.14.02-.05.08-.09.13-.07.05.02.07.08.06.13-.02.06-.08.1-.13.08zm.97.47c-.02-.02.05-.08.14-.15.2-.13.43-.1.37.06-.01.05.13.15.33.22s.35.17.33.22c-.02.06-.17.06-.35 0-.17-.05-.35-.06-.4-.02-.05.06-.14.02-.24-.1l-.18-.23zm-.05.87c-.26-.09-.3-.23-.15-.44.14-.18.26-.15.36.1.12.29.04.42-.21.34zm-.08.67c-.1-.04-.16-.13-.13-.22.05-.13.09-.13.2 0 .08.1.14.2.13.23-.01.02-.1.02-.2-.01zm-.18.63c-.04 0-.07-.07-.07-.15 0-.07.05-.1.1-.05.1.08.08.23-.03.2zm-2.7 2.9c.05.02.1-.01.12-.07.02-.06 0-.12-.06-.14-.05-.01-.1.02-.12.08-.02.06 0 .12.06.13zm-1.08 3.76c.17-.1.18-.15.04-.46-.1-.24-.13-.33-.19-.34-.04-.01-.08.02-.16.06-.18.1-.28.35-.16.39.05.01.13.13.18.25.08.2.1.2.28.1zm-2.24 3.71c.07.1.37-.1.32-.2-.02-.05-.08-.1-.15-.13-.13-.04-.26.21-.17.33zm.2 2.56c.2.07.56-.22.66-.54.03-.07.02-.16 0-.2-.08-.1-.97.09-1 .2-.06.17.13.47.34.54zm13.07 3.9c.05 0 .1-.05.13-.13.06-.17-.03-.33-.13-.27s-.1.36 0 .4zm-15.1.26c.26-.04.36-.11.43-.33.09-.26.07-.3-.21-.4-.34-.1-.56.08-.58.5 0 .12-.09.26-.2.32-.42.25-.36.65.14.82.18.06.23.02.31-.22.07-.2.05-.35-.06-.47-.16-.16-.16-.17.17-.22zm7.97 5.28c.23.24.32.12.43-.58l.12-.88.03-.33-.17.29c-.1.16-.27.52-.38.8-.18.45-.18.53-.03.7zm-9.43-2.85c.08-.06.22-.31.31-.56.25-.66.02-.65-.39.02-.42.7-.99 1.47-1.11 1.52-.05.02-.18.34-.29.7-.18.64-.18.69.03.8.28.13.64-.08.49-.29-.09-.1-.07-.14.08-.15.1 0 .28-.18.42-.39.22-.34.23-.39.09-.6-.13-.2-.12-.3.04-.6.1-.19.25-.4.33-.45zm5.8 7.15c.27-.16.19-.34-.31-.7a3.6 3.6 0 00-.73-.39c-.27-.1-.35-.08-.4.09-.04.1 0 .25.1.32.08.07.13.18.12.23-.05.16.1.48.24.53.07.02.22-.03.33-.12.2-.17.54-.14.48.05-.02.06.06.06.17 0zm-1.76 2.24c.03.01.03-.06 0-.17-.03-.1-.1-.2-.15-.22-.04-.02-.04.06 0 .17.05.11.11.21.15.22z"/>
  <path fill-rule="evenodd" clip-rule="evenodd" d="M142.43 57.65c.43.71.42 1.66.23 2.56l-.02.07c-.23 1.07-.56 2.6-2.02 3.93-1.5 1.34-4.35 2.38-6 2.9-.83.25-1.56.35-2.15.3-.58-.05-.95-.23-1.18-.49a3.78 3.78 0 01-1.13-2.67c.03-.92.53-2.07 2-3.4a15.6 15.6 0 015.47-3.09c.95-.3 1.8-.43 2.5-.4.25 0 .58-.03.9-.06.29-.02.57-.05.78-.04.18.06.34.13.49.21l.13.18zm-.12-.17c.2.11.38.26.54.43 1.92 2.13 1.52 5.34-1.95 8.47-3.48 3.13-8.7 5-10.63 2.86-1.92-2.13-2.54-5.02.93-8.15.95-.85 2.1-1.63 3.31-2.28a19.7 19.7 0 00-2.04 1.6c-3.16 2.85-3.04 4.5-1.84 6.51 1.7 1.9 6.42.75 9.58-2.1 2.92-2.63 3.49-5.29 2.22-7.17a2.26 2.26 0 00-.12-.17z"/>
</svg>
