<svg width="26" height="26" fill="none" xmlns="http://www.w3.org/2000/svg"><path d="M8.995 25a3.999 3.999 0 003.994-4v-4H8.995A3.999 3.999 0 005 21c0 2.208 1.79 4 3.995 4zM5 13c0-2.208 1.79-4 3.995-4h3.994v8H8.995A3.999 3.999 0 015 13zM5 5c0-2.208 1.79-4 3.995-4h3.994v8H8.995A3.999 3.999 0 015 5zM12.99 1h3.994a3.999 3.999 0 013.995 4c0 2.208-1.79 4-3.995 4h-3.995V1z" stroke="#fff" stroke-width="2"/><path d="M20.979 13c0 2.208-1.79 4-3.995 4a3.999 3.999 0 01-3.995-4c0-2.208 1.79-4 3.995-4a3.999 3.999 0 013.995 4z" stroke="#fff" stroke-width="2"/></svg>