<svg width="26" height="26" viewBox="0 0 26 26" fill="none" xmlns="http://www.w3.org/2000/svg">
<path d="M12.9998 2.34556C16.4699 2.34556 16.8808 2.35876 18.2512 2.42129C19.5183 2.47912 20.2064 2.69083 20.6644 2.86876C21.271 3.10451 21.7039 3.38618 22.1587 3.84092C22.6134 4.29566 22.8951 4.72863 23.1308 5.3352C23.3088 5.79319 23.5205 6.48131 23.5783 7.74835C23.6408 9.11876 23.6541 9.52976 23.6541 12.9998C23.6541 16.4699 23.6408 16.8809 23.5783 18.2513C23.5205 19.5183 23.3088 20.2065 23.1308 20.6645C22.8951 21.271 22.6134 21.704 22.1587 22.1587C21.7039 22.6135 21.271 22.8952 20.6644 23.1309C20.2064 23.3088 19.5183 23.5205 18.2512 23.5784C16.8811 23.6409 16.4701 23.6541 12.9998 23.6541C9.5295 23.6541 9.11851 23.6409 7.74835 23.5784C6.48126 23.5205 5.79314 23.3088 5.3352 23.1309C4.72858 22.8952 4.29561 22.6135 3.84087 22.1587C3.38612 21.704 3.10446 21.271 2.86876 20.6645C2.69078 20.2065 2.47906 19.5183 2.42124 18.2513C2.35871 16.8809 2.34551 16.4699 2.34551 12.9998C2.34551 9.52976 2.35871 9.11876 2.42124 7.7484C2.47906 6.48131 2.69078 5.79319 2.86876 5.3352C3.10446 4.72863 3.38612 4.29566 3.84087 3.84092C4.29561 3.38618 4.72858 3.10451 5.3352 2.86876C5.79314 2.69083 6.48126 2.47912 7.7483 2.42129C9.11871 2.35876 9.52971 2.34556 12.9998 2.34556ZM12.9998 0.00390625C9.47028 0.00390625 9.02776 0.0188666 7.64161 0.0821126C6.2583 0.145255 5.31363 0.364914 4.48695 0.6862C3.63235 1.01832 2.9076 1.46269 2.18512 2.18517C1.46264 2.90765 1.01827 3.6324 0.686148 4.487C0.364863 5.31368 0.145204 6.25835 0.082061 7.64166C0.018815 9.02776 0.00390625 9.47033 0.00390625 12.9998C0.00390625 16.5293 0.018815 16.9719 0.082061 18.358C0.145204 19.7413 0.364863 20.686 0.686148 21.5127C1.01827 22.3672 1.46264 23.092 2.18512 23.8145C2.9076 24.537 3.63235 24.9813 4.48695 25.3135C5.31363 25.6347 6.2583 25.8544 7.64161 25.9175C9.02776 25.9808 9.47028 25.9957 12.9998 25.9957C16.5293 25.9957 16.9718 25.9808 18.3579 25.9175C19.7413 25.8544 20.6859 25.6347 21.5126 25.3135C22.3672 24.9813 23.092 24.537 23.8144 23.8145C24.5369 23.092 24.9813 22.3673 25.3134 21.5127C25.6347 20.686 25.8544 19.7413 25.9175 18.358C25.9807 16.9719 25.9957 16.5293 25.9957 12.9998C25.9957 9.47033 25.9807 9.02776 25.9175 7.64166C25.8544 6.25835 25.6347 5.31368 25.3134 4.487C24.9813 3.6324 24.5369 2.90765 23.8144 2.18517C23.092 1.46269 22.3672 1.01832 21.5126 0.6862C20.6859 0.364914 19.7413 0.145255 18.3579 0.0821126C16.9718 0.0188666 16.5293 0.00390625 12.9998 0.00390625Z" fill="white"/>
<path d="M12.9998 6.32617C9.31406 6.32617 6.32617 9.31406 6.32617 12.9998C6.32617 16.6855 9.31406 19.6734 12.9998 19.6734C16.6855 19.6734 19.6734 16.6855 19.6734 12.9998C19.6734 9.31406 16.6855 6.32617 12.9998 6.32617ZM12.9998 17.3318C10.6073 17.3318 8.66777 15.3922 8.66777 12.9998C8.66777 10.6073 10.6073 8.66777 12.9998 8.66777C15.3922 8.66777 17.3318 10.6073 17.3318 12.9998C17.3318 15.3922 15.3922 17.3318 12.9998 17.3318Z" fill="white"/>
<path fill-rule="evenodd" clip-rule="evenodd" d="M21.4965 6.06241C21.4965 6.92372 20.7983 7.62195 19.937 7.62195C19.0757 7.62195 18.3774 6.92372 18.3774 6.06241C18.3774 5.20111 19.0757 4.50293 19.937 4.50293C20.7983 4.50293 21.4965 5.20111 21.4965 6.06241Z" fill="white"/>
</svg>
