<svg width="26" height="26" fill="none" xmlns="http://www.w3.org/2000/svg"><path d="M20.583 0H5.417A5.417 5.417 0 000 5.417v15.166A5.417 5.417 0 005.417 26h15.166A5.417 5.417 0 0026 20.583V5.417A5.417 5.417 0 0020.583 0zM8.667 20.583h-3.25V8.667h3.25v11.916zM7.042 7.293a1.904 1.904 0 01-1.896-1.911c0-1.055.85-1.911 1.896-1.911 1.046 0 1.896.856 1.896 1.911a1.903 1.903 0 01-1.896 1.911zm14.625 13.29h-3.25v-6.07c0-3.65-4.334-3.373-4.334 0v6.07h-3.25V8.667h3.25v1.912c1.513-2.802 7.584-3.009 7.584 2.682v7.322z" fill="#fff"/></svg>