<svg width="26" height="26" fill="none" xmlns="http://www.w3.org/2000/svg"><path fill-rule="evenodd" clip-rule="evenodd" d="M0 0h26v26H0V0zm6.205 8.695v7.72a.888.888 0 01-.237.767l-1.835 2.225v.294h5.203v-.294L7.5 17.182a.921.921 0 01-.253-.767V9.74l4.567 9.962h.53l3.922-9.962v7.94c0 .212 0 .253-.139.391l-1.41 1.37v.293h6.85v-.293l-1.362-1.337a.408.408 0 01-.155-.391V7.888a.408.408 0 01.155-.39L21.6 6.16v-.293h-4.827l-3.441 8.584-3.915-8.584H4.354v.293l1.63 1.965c.16.144.242.356.22.57z" fill="#fff"/></svg>