<svg width="26" height="26" fill="none" xmlns="http://www.w3.org/2000/svg"><path d="M20.67 11.526c-4.178-2.481-11.068-2.71-15.057-1.5a1.212 1.212 0 11-.703-2.319c4.578-1.39 12.188-1.121 16.997 1.734a1.212 1.212 0 01-1.237 2.085zm-.137 3.674a1.011 1.011 0 01-1.39.333c-3.482-2.14-8.793-2.761-12.914-1.51a1.012 1.012 0 01-1.261-.673c-.161-.535.14-1.098.674-1.26C10.349 10.66 16.2 11.352 20.2 13.81c.475.293.624.915.332 1.39zm-1.585 3.53a.807.807 0 01-1.111.268c-3.044-1.86-6.874-2.28-11.386-1.25a.808.808 0 11-.36-1.574c4.938-1.129 9.172-.643 12.588 1.445.381.232.501.73.269 1.11zM13.004.035C5.846.036.044 5.84.044 12.996c0 7.159 5.802 12.96 12.96 12.96 7.158 0 12.96-5.801 12.96-12.96 0-7.157-5.802-12.96-12.96-12.96z" fill="#fff"/></svg>