<svg width="26" height="26" fill="none" xmlns="http://www.w3.org/2000/svg"><path d="M8.176 23.126c9.812 0 15.178-8.128 15.178-15.177 0-.231 0-.461-.015-.69A10.853 10.853 0 0026 4.498c-.974.431-2.006.714-3.064.84a5.353 5.353 0 002.345-2.951 10.69 10.69 0 01-3.387 1.294 5.34 5.34 0 00-9.09 4.866A15.144 15.144 0 011.81 2.973a5.338 5.338 0 001.651 7.121 5.294 5.294 0 01-2.421-.668v.068a5.336 5.336 0 004.28 5.23 5.328 5.328 0 01-2.409.09 5.34 5.34 0 004.984 3.705A10.704 10.704 0 010 20.73a15.101 15.101 0 008.176 2.392" fill="#fff"/></svg>