<svg width="26" height="26" fill="none" xmlns="http://www.w3.org/2000/svg"><path d="M0 12.962C-.038 5.812 5.735.038 12.886 0c7.15-.038 12.923 5.735 12.961 12.886.038 7.15-5.735 12.923-12.885 12.961h-.038C5.812 25.847.038 20.074 0 12.962zm1.835 0c0 6.119 4.97 11.088 11.089 11.088 6.119 0 11.088-4.97 11.088-11.088 0-6.119-4.936-11.054-11.055-11.088h-.033c-6.12 0-11.089 4.97-11.089 11.088z" fill="#fff"/><path d="M8.758 9.085c.439-.186.878-.466 1.23-.839a4.75 4.75 0 00.79 1.818c-.351.14-.703.326-.966.606-.176-.606-.571-1.165-1.054-1.585zm4.734-2.28c-.495-.047-.99.045-1.485.229a5.264 5.264 0 00-.825-2.39c.041-.046 1.196-.552 1.938-.414.743.138.413 1.885.413 2.574h-.041zm1.555 14.773h-3.93c.385-.217.727-.39.77-.564.17-.738.17-1.562 0-2.3a2.955 2.955 0 00-1.666-1.474c-.256.043-.513.174-.769.304l.427.303c-.384.26-.726.608-.94 1.041-.213-.26-.47-.477-.725-.694a2.54 2.54 0 01.982-1.04l.213.216c.171-.13.342-.26.556-.304-.726-.26-1.495-.477-2.264-.563v.78a5.36 5.36 0 00-2.477.304c0-.087-.256-1.301.043-2.039.299-.737 1.922.043 2.605.174-.043.173-.085.39-.128.564.555-.087 1.067-.13 1.623-.087a2.337 2.337 0 00-1.068-.868 4.77 4.77 0 01-1.238-.824l-.641.347c-.128-.824-.555-1.648-1.11-2.256.64-.13 1.238-.39 1.793-.694.086.608.214 1.866.64 2.43-.255 0-.469.086-.683.216.428.304.94.521 1.453.651a1.668 1.668 0 010-.65h-.3a3.34 3.34 0 01.043-1.128c.3-.044.598 0 .854.086-.17.347-.256.694-.256 1.085h-.341c0 .26.042.477.17.694a2.434 2.434 0 011.367 1.084l1.153.304c0-.217-.043-.434-.128-.607l-.299.087a2.023 2.023 0 00-.512-.998c.256-.13.555-.26.854-.304.17.347.256.694.299 1.085h-.342c.128.216.213.433.256.694l.683.303a3.93 3.93 0 00-.896-2.82l-.684.565c-.213-.911-1.537-2.083-1.537-2.083.512-.26.982-.607 1.41-1.04.81.433 1.409 1.691 1.537 2.038l-.641.347.769.65.299.435c.17-.13.299-.304.427-.52l-.427-.131c.299-.434.47-.911.555-1.432.299.217.64.347.982.39a3.054 3.054 0 01-.512 1.476l-.427-.217a1.85 1.85 0 01-.428.737c.257.564.428 1.215.684 1.822 1.537-1.301 1.11-3.774.811-4.902l-.726.564a5.802 5.802 0 00-2.007-1.952c.043-.043.94-1.171 1.794-1.388.854-.217 1.28 1.692 1.665 2.43l-.555.303c.384.607.683 1.258.812 1.952l.683-.564-.3-.13a2.54 2.54 0 01.983-1.041c.214.26.47.477.726.65-.384.26-.726.608-.94 1.042l-.384-.39c-.299.39-.555.867-.726 1.344.043.52 0 1.085-.128 1.605.427-.26.897-.39 1.41-.434.128-.52.426-.91.896-1.171l-.47-.564c.513-.52 1.495-1.475 2.05-1.605a4.574 4.574 0 011.153 1.692 4.94 4.94 0 00-2.22 1.128l-.385-.564c-.256.303-.427.65-.47 1.04.641-.043 1.325 0 1.965.088.043-.26.085-.478.043-.738.341-.043 1.708 0 2.477.564-.171.564-.3 1.171-.3 1.779 0 0-1.58-.694-2.476-.52.085-.261.17-.565.213-.825a5.565 5.565 0 00-2.647.39l.854.174a.814.814 0 00.085-.304c.47.087.897.347 1.239.694a1.68 1.68 0 00-.513.824 3.1 3.1 0 00-1.238-.65l.299-.477c-.385-.044-.77-.087-1.153-.044l-.684.477c-.256.26-.47.564-.598.911.128.174.171.39.171.608.043.347-.128.65-.427.824 0 .477.17.954.47 1.301l.47.304zM14 18.77a.399.399 0 00-.176-.425c-.14.042-.21.212-.21.383-.035.17.035.34.175.425.14-.043.246-.213.21-.383zm-.436-.388c-.283.073-.404.367-.324.77-.04-.256.081-.513.283-.697.121-.073.04-.11.04-.11v.037zM11.1 9.09c-.364-.826-.889-1.56-1.535-2.11.04-.046.93-.963 1.656-1.147.727-.183.97 1.79 1.172 2.477l-.687.321c.08.276.08.55 0 .826-.04-.23-.08-.505-.162-.734l-.444.367zm-5.98 4.292c-.179.206-.224 1.113-.179 1.73a8.163 8.163 0 00-2.648-.288c.18-.577.27-1.154.18-1.731.403.289 2.02.33 2.648.289zm4.04-2.047c-.59.042-1.139.252-1.645.546-.042-.797-.802-1.93-1.182-2.518.76-.042 2.11-.714 2.11-.714-.169.756.254 1.93.676 2.686h.042zm6.485-3.898a2.401 2.401 0 00-1.15 0c-.077-.606-.154-1.865.038-2.377a2.753 2.753 0 011.496.14c-.269.699-.422 1.445-.384 2.237zm-7.252.808s-.687-1.165-1.252-1.398c.323-.28.606-.653.808-1.026.525.326.93.792 1.212 1.398-.323.28-.566.653-.768 1.026zm8.444 2.806c.778-.434 1.557-1.998 1.557-1.998.37.478.779.869 1.27 1.216-.245.913-1.229 1.825-1.516 1.999-.123-.174-.246-.348-.41-.478a3.052 3.052 0 00-.696 1.303c.082-.521.287-1 .533-1.434l-.738-.608zm3.913 4.466c.091-.296-.318-1.266-.681-1.942a7.233 7.233 0 002.954-.886c.09.675.318 1.35.682 1.942-.546-.085-2.318.548-2.954.886zm-1.49-3.615c.655-.425 1.555-1.318 1.76-2.041.409.595.9 1.106 1.473 1.53-.573.341-1.718 1.064-2.087 1.702a3.142 3.142 0 00-1.145-1.19zM16.03 8.555c.25-.5.794-1.913.752-2.329.502.291 1.087.458 1.672.54a6.345 6.345 0 00-.71 2.288c-.544-.291-1.422-.624-1.672-.54l-.042.041zm-.62 2.474a4.741 4.741 0 01-.736 1.661c.26-.539.39-1.122.432-1.75l-.692-.18c.433-.584.52-1.886.563-2.514.605.314 1.212.539 1.86.628-.519.45-.865 1.616-.951 2.424l-.477-.269zm-2.612-3.328c.449 0 .853-.087 1.257-.263 0 .615.134 1.186.359 1.757-.45 0-.853.087-1.257.263 0-.615-.135-1.186-.36-1.757zm8.08.44c-.44.35-.835.79-1.054 1.317a2.743 2.743 0 00-.966-.44c.175-.438.483-1.317.79-1.58.44.132.878.351 1.23.659v.044zM5.252 11.478c-.26-.705-1.342-1.543-1.342-1.543.39-.264.736-.528 1.039-.881.606.353 1.082.837 1.385 1.454-.39.265-.78.573-1.082.97z" fill="#fff"/></svg>